<svg width="37" height="36" viewBox="0 0 37 36" fill="none" xmlns="http://www.w3.org/2000/svg">
<path d="M11.2637 7.48926C9.60924 7.48926 8.26801 8.8305 8.26801 10.485V25.4637C8.26801 27.1181 9.60924 28.4594 11.2637 28.4594H26.2424C27.8969 28.4594 29.2381 27.1181 29.2381 25.4637V10.485C29.2381 8.8305 27.8969 7.48926 26.2424 7.48926H11.2637ZM15.258 24.0907H12.6368V14.4793H15.258V24.0907ZM13.9474 13.3714C13.1034 13.3714 12.4183 12.6811 12.4183 11.8301C12.4183 10.979 13.1034 10.2888 13.9474 10.2888C14.7915 10.2888 15.4765 10.979 15.4765 11.8301C15.4765 12.6811 14.7924 13.3714 13.9474 13.3714ZM25.7431 24.0907H23.1218V19.1941C23.1218 16.2513 19.6269 16.4741 19.6269 19.1941V24.0907H17.0056V14.4793H19.6269V16.0215C20.8474 13.762 25.7431 13.595 25.7431 18.1849V24.0907Z" fill="#151515"/>
</svg>
