<svg width="41" height="41" viewBox="0 0 41 41" fill="none" xmlns="http://www.w3.org/2000/svg">
<path d="M19.7821 26.3338L14.1667 20.7184M19.7821 26.3338C22.3967 25.3394 24.9049 24.0853 27.2692 22.5902M19.7821 26.3338V35.6928C19.7821 35.6928 25.4536 34.6633 27.2692 31.9492C29.2908 28.9169 27.2692 22.5902 27.2692 22.5902M14.1667 20.7184C15.1627 18.1343 16.4169 15.6572 17.9103 13.3248C20.0912 9.83764 23.1281 6.96643 26.732 4.98428C30.3359 3.00212 34.387 1.97495 38.5 2.00046C38.5 7.09175 37.04 16.0389 27.2692 22.5902M14.1667 20.7184H4.80769C4.80769 20.7184 5.83718 15.0469 8.55128 13.2312C11.5836 11.2097 17.9103 13.2312 17.9103 13.2312M5.74359 29.1415C2.9359 31.5 2 38.5005 2 38.5005C2 38.5005 9.00051 37.5646 11.359 34.7569C12.6879 33.1846 12.6692 30.77 11.1905 29.31C10.463 28.6155 9.50457 28.2143 8.49929 28.1832C7.49402 28.1521 6.51267 28.4934 5.74359 29.1415Z" stroke="black" stroke-width="3.74359" stroke-linecap="round" stroke-linejoin="round"/>
</svg>
