<svg width="54" height="54" viewBox="0 0 54 54" fill="none" xmlns="http://www.w3.org/2000/svg">
<path d="M25.4295 48.6348C25.9277 48.9254 26.1767 49.0707 26.5282 49.1461C26.801 49.2046 27.199 49.2046 27.4718 49.1461C27.8233 49.0707 28.0723 48.9254 28.5705 48.6348C32.9536 46.0777 45 38.0453 45 27.0013V16.2409C45 14.442 45 13.5425 44.7058 12.7694C44.4459 12.0864 44.0235 11.4769 43.4753 10.9937C42.8546 10.4468 42.0125 10.131 40.3281 9.49933L28.264 4.97531C27.7963 4.7999 27.5624 4.71219 27.3218 4.67743C27.1084 4.64659 26.8916 4.64659 26.6782 4.67743C26.4376 4.71219 26.2037 4.7999 25.736 4.97531L13.6719 9.49933C11.9875 10.131 11.1454 10.4468 10.5247 10.9937C9.97646 11.4769 9.55412 12.0864 9.29421 12.7694C9 13.5425 9 14.442 9 16.2409V27.0013C9 38.0453 21.0464 46.0777 25.4295 48.6348Z" stroke="black" stroke-width="4.5" stroke-linecap="round" stroke-linejoin="round"/>
</svg>
